# xmcd
#
# Track frame offsets:
#	150
#	17236
#	34334
#	45645
#	60488
#	73761
#	90809
#	110979
#	125874
#	142201
#	160331
#	177879
#	192523
#	210651
#
# Disc length: 3059 seconds
#
# Revision: 1
# Processed by: cddbd v1.5.1PL0 Copyright (c) Steve Scherf et al.
# Submitted via: EasyCDDAExtractor 6.0.0.1
#
DISCID=d50bf10e
DTITLE=Various Artist - Copy Cat Country
DYEAR=2004
DGENRE=Country
TTITLE0=Anni Filt - Rhinestone Cowboy
TTITLE1=Anni Filt and Charlie McCoy - Baby Ride Easy
TTITLE2=Anni Filt - Walking After Midnight
TTITLE3=Anni Filt - Last Thing On My Mind
TTITLE4=Anni Filt - Jolene
TTITLE5=Anni Filt - Runaway Train
TTITLE6=Anni Filt - Forever and Ever, Amen
TTITLE7=Anni Filt - Take Me Home Country Roads
TTITLE8=Anni Filt - Don't Tell Me What To Do
TTITLE9=Anni Filt - Heart Over Mind
TTITLE10=Anni Filt - Blanket On The Ground
TTITLE11=Anni Filt - Rose Garden
TTITLE12=Anni Filt - Never Gonna Feel That Way Again
TTITLE13=Anni Filt - The Fall Is In The Air
EXTD=
EXTT0=
EXTT1=
EXTT2=
EXTT3=
EXTT4=
EXTT5=
EXTT6=
EXTT7=
EXTT8=
EXTT9=
EXTT10=
EXTT11=
EXTT12=
EXTT13=
PLAYORDER=
